<?xml version="1.0" encoding="UTF-8"?>
<svg version="1.1" viewBox="0 0 1600 1600" width="1280" height="1280" xmlns="http://www.w3.org/2000/svg">
<path transform="translate(783,298)" d="m0 0h42l25 3 24 5 29 9 20 8 27 13 22 13 18 13 17 14 24 24 13 17 10 14 12 20 8 15 11 26 6 19 5 21 5 31 1 14v36l-3 25-5 26-8 26-10 25-11 23-15 24-12 16-12 14-4 4-1 13v170h106l12 1 8 5 4 5 1 3v13l-4 7-5 4-6 2h-156l-4-5-1-465-6 4-11 11-8 7-12 10-1 38v393l-3 5-4 2h-30l-3-4-1-7v-375l-9 7-9 9-11 9-7 7-1 3-1 345-3 5-3 1h-29l-3-4-1-12v-268l-11 9-7 7-8 7-11 10-1 238-1 10-5 3-26 1-7-2-2-4-1-198-1-9-13 12-8 7-14 12-1 4-1 45-5-1-12-5-19-10-25-15-18-13-13-11-8-7-10-9-14-15-9-11-10-13-13-20-9-16-13-27-9-24-5-18-6-31-3-35v-21l2-27 3-18 7-26 7-19 9-21 8-16 9-16 9-14 11-15 13-16 14-15 8-8 8-7 15-12 18-12 18-10 21-10 21-8 23-7 24-5 26-4zm163 134-11 4-5 4-6 9-3 9v15l4 11 9 10 10 5 4 1h16l10-4 7-6 6-10 2-7v-13l-3-10-6-9-8-6-5-2-6-1z" fill="#24C0B1"/>
<path transform="translate(700,385)" d="m0 0h10l3 1-1 5-10 8-13 10-20 11-19 12-12 7-13 13-5 4h-2l-2 4-10 10-8 7-5 6-11 9-4 2-2 4-2 3h-2l-2 5-8 10-7 12-8 11-9 17-5 14-3 9 4-1 5-4 12-12h2l1-3 7-6h2l1-3 19-14 16-10 9-6 28-14 21-9 21-8 24-8 21-5 16-4 22-4h12l2 3-9 6-7 6-18 12-11 7-17 9-10 6-10 7-15 9-10 8-5 5h-2v2l-8 7-10 9-6 4h-2l-3 9-6 7-4 1-3 4h-2l-2 4-5 5-7 10-9 12-1 2h-2l-2 6-6 8-5 13 1 4 10-8h2l1-3 4-3h2l1-3 12-9 3-1v-2l24-16 21-12 25-13 26-12 20-8 26-9 21-7 21-6 22-6 18-4h3l1 5-5 5-9 6-10 6-15 8-11 8-11 7-14 10-6 3-4 4h-2v2h-2v2l-26 18-7 5h-2v2l-13 10-11 12-9 5-7 6h-2l-2 4-7 6-5 7h-2l-2 4-5 5-3 1-2 4-8 11-9 11-5 9-3 7 1 5 5-3 21-16 24-16 16-10 23-12 17-9 13-6 21-9 19-8 28-11 25-10 21-9 12-5 14-7 10-3 4 3v8h3l1 6h-1v9l3 6 1 9 4 1 2 4v3h2l5 13 3 10 5 2 2 1 3-4 4-24 2 2 1 36 1 262v70l-3 5-4 2h-30l-3-4-1-7v-375l-9 7-9 9-11 9-7 7-1 3-1 345-3 5-3 1h-29l-3-4-1-12v-268l-11 9-7 7-8 7-11 10-1 238-1 10-5 3-26 1-7-2-2-4-1-198-1-9-13 12-8 7-14 12-1 4-1 45-5-1-12-5-19-10-25-15-18-13-13-11-8-7-10-9-14-15-9-11-10-13-13-20-9-16-13-27-9-24-5-18-6-31-3-35v-21l2-27 3-18 7-26 7-19 9-21 5-11h2l2 5 9-6 10-9 24-18 15-10 14-8 17-9 16-7 15-5 10-4 9-2 12-3z" fill="#06616C"/>
<path transform="translate(700,385)" d="m0 0h10l3 1-1 5-10 8-13 10-20 11-19 12-12 7-13 13-5 4h-2l-2 4-10 10-8 7-5 6-11 9-4 2-2 4-2 3h-2l-2 5-8 10-7 12-8 11-9 17-5 14-3 9 4-1 5-4 12-12h2l1-3 7-6h2l1-3 19-14 16-10 9-6 28-14 21-9 21-8 24-8 21-5 16-4 22-4h12l2 3-9 6-7 6-18 12-11 7-17 9-10 6-10 7-15 9-10 8-5 5h-2v2l-8 7-10 9-6 4h-2l-3 9-6 7-4 1-3 4h-2l-2 4-5 5-7 10-9 12-1 2h-2l-2 6-6 8-5 13 1 4 10-8h2l1-3 4-3h2l1-3 12-9 3-1v-2l24-16 21-12 25-13 17-8 9-1 6 1v5l-12 13-4 6-8 6-14 14-6 5h-2v2h-2l-2 5-7 10-10 13-5 5-8 10-11 15-7 13-7 12-7 10-8 17-3 10-2 15 7-3 3-1 2-4 18-18 11-9 10-8 11-8 5-1 15-10 11-7 17-10 15-8 14-6 10-3v-2l7-1 3 1-3 13-4 7-4 1-6 9-6 7h-4l-2 6 3 1-4 6v3l-7 8h-2l-2 4-9 13-6 11-7 2-1 4 1 1-6 12-2 6-5 1-4 6 2 1v2h-2l-2 5-11 13-4 6-4 11-4 8-3 5-5 4-3 5-2 2-4 1-11-9-13-11-13-12-13-14-9-11-10-13-13-20-9-16-13-27-9-24-5-18-6-31-3-35v-21l2-27 3-18 7-26 7-19 9-21 5-11h2l2 5 9-6 10-9 24-18 15-10 14-8 17-9 16-7 15-5 10-4 9-2 12-3z" fill="#06616C"/>
<path transform="translate(978,639)" d="m0 0 4 5 1 5 2 1-1 2 2 1 2 8 3 8 7 6 2 1v3h6l3-1 3 2h1l5-2 9-1v-1h21l7 2 4 1 2-2h6v3h6l-1-3 5-1 5-4 5 1 2 1v7l-8 22-11 25-8 15-14 22-10 13-12 14-4 4-1 13v170h106l12 1 8 5 4 5 1 3v13l-4 7-5 4-6 2h-156l-4-5v-350z" fill="#074A58"/>
<path transform="translate(700,385)" d="m0 0h10l3 1-1 5-10 8-13 10-20 11-19 12-12 7-13 13-5 4h-2l-2 4-10 10-8 7-5 6-11 9-4 2-2 4-2 3h-2l-2 5-8 10-7 12-8 11-9 17-5 14-3 9 4-1 5-4 12-12h2l1-3 7-6h2l1-3 19-14 16-10 9-6 28-14 21-9 21-8 24-8 21-5 16-4 22-4h12l2 3-9 6-7 6-18 12-11 7-17 9-10 6-10 7-15 9-10 8-5 5h-2v2l-8 7-10 9-6 4h-2l-3 9-6 7-4 1-3 4h-2l-2 4-5 5-7 10-9 12-1 2h-2l-2 6-6 8-5 13 1 4 10-8h2l1-3 4-3 2 1-7 7-8 7-13 13-8 10-10 11h-4l-1-6 4-17 3-8 7-18h2l3-9 5-14 6-11 7-12 4-4 2-7h2l2-5 6-9 8-9 7-9 8-9 8-7 10-13 5-7 3-7-12 2-21 10-11 6-22 14-16 13-8 7h-2v2l-8 7-5 5h-2l-2 4-10 12-14 21-3 5h-2l-2-3v-33l2-18 7-20 5-15 10-19 9-17 8-13 5-10-12 7h-2v2l-5 2v2l-6 4h-3l3 1h3v-2l4-1v-2l6-4 3-3h2l-1 7-9 13-7 11-4 7-1-4 4-11 1-6-8-1 2-6 7-15 2-5h2l2 5 9-6 10-9 24-18 15-10 14-8 17-9 16-7 15-5 10-4 9-2 12-3z" fill="#047C82"/>
<path transform="translate(585,879)" d="m0 0h8l9 4 21 12 17 10 28 16 23 13 9 6 2 3v71l-5 5-11 1h-16l-6-2-3-4-1-3v-46l-1-3-27-16-12-7v75l-5 5h-146l-7-3-5-6-2-5v-11l4-8 6-5 2-1h113v-94l3-6z" fill="#057C82"/>
<path transform="translate(453,1129)" d="m0 0h15l7 2 8 9 10 13 11 13 13 17 12 14 9 11 5 7 2 1 1-33 1-52 1-1 22-1 9 1 3 4v137l-5 5h-25l-5-3-9-9-11-14-13-16-11-14-11-13-9-11-6-4 1 76-2 7-2 1h-24l-5-2-2-3-1-8v-82l1-48 3-3z" fill="#074A58"/>
<path transform="translate(910,1129)" d="m0 0h61l16 2 13 5 10 7 8 9 6 13 2 8v15l-5 13-7 11-8 6-7 4 5 9 10 14 14 19 4 8-1 3-5 1h-29l-5-5-11-15-16-24h-24l-1 41-4 3h-28l-4-5v-138l2-3zm31 35-1 4v32h34l10-3 4-5 2-5v-10l-4-7-6-5-4-1z" fill="#074A58"/>
<path transform="translate(739,774)" d="m0 0h3l2 4 3-3h3v8l-3 3-1 8 5 3 1-3v5l-3 4 1 6 4 6v3h2v2l2-1-1-4 3 1v2h2v2h2l1 8h2l3 10 4-5 2 4 2-3 1-8h1l1 19v171l-5 3-26 1-7-2-2-4-1-198-1-9-13 12-8 7-14 12-1 4-1 45-5-1-12-5-19-10-25-15-5-5 9-7 5-5 11-10 7-5 5-5 11-9 13-11 10-7 2-2h3v-2l14-7h2v-2l9-3h2z" fill="#074A58"/>
<path transform="translate(639,1129)" d="m0 0h71l9 1 2 9v15l-1 7-5 3-73 1v22l53 1 5 5 1 2v19l-5 6h-55l1 22h76l2 1 1 4v23l-2 5-2 1h-108l-4-5v-137l3-4z" fill="#063D4E"/>
<path transform="translate(742,662)" d="m0 0 8 1-3 13-4 7-4 1-6 9-6 7h-4l-2 6 3 1-4 6v3l-7 8h-2l-2 4-9 13-6 11-7 2-1 4 1 1-6 12-2 6-5 1-4 6 2 1v2h-2l-2 5-11 13-4 6-4 11-4 8-3 5-5 4-3 5-2 2-4 1-11-9-13-11-13-12-13-14-3-4 2-4 8-13 10-13 3-4h2l2-4 7-8 4-5h2l1-3h2l1-3h2l1-3 14-11 6-5h2v-2l6-4h2v-2l15-10 11-7 14-9 24-13 14-6 10-3v-2z" fill="#074A58"/>
<path transform="translate(1106,1129)" d="m0 0h23l6 2 4 6 14 35 24 56 10 23 8 18-1 5-7 2h-23l-5-3-5-8-7-15h-57l-5 8-4 10-5 7-2 1h-29l-4-4 1-6 9-19 11-26 19-42 16-37 4-9zm12 51-3 4-13 31v2l30 1 3-2-12-29-3-6z" fill="#063F50"/>
<path transform="translate(753,1129)" d="m0 0h19l5 2 9 10 12 17 12 16 4-2 9-11 14-20 8-10 6-2h25l11 1-2 5-12 16-11 14-10 12-8 10-9 12 1 5 9 11 7 9 12 15 20 26 3 6-1 4-4 1h-33l-7-7-13-18-10-13-6-8-4 1-8 11-12 16-8 11-4 5-3 2h-34l-3-2 1-6 14-18 11-14 8-10 10-13 7-10-2-5-6-9-8-10-12-16-11-13-10-14-2-3v-3z" fill="#063F50"/>
<path transform="translate(936,735)" d="m0 0h1l1 207v70l-3 5-4 2h-30l-3-4-1-7v-234l1-32 3 4 3 10 7 12 8 9 5 4 1 4h7l1-2 2-42z" fill="#064957"/>
<path transform="translate(838,531)" d="m0 0h3l1 5-5 5-9 6-10 6-15 8-11 8-11 7-14 10-6 3-4 4h-2v2h-2v2l-26 18-7 5h-2v2l-13 10-11 12-9 5-7 6h-2l-2 4-7 6-5 7h-2l-2 4-5 5-3 1-2 4-8 11-9 11-5 9-3 7 1 5 5-3 21-16 24-16 16-10 19-10 2 1-23 13-16 10-16 11-14 10-13 11-11 9-21 21-6 1v-11l3-11 5-12 9-16 6-8 4-8 8-14 10-13 11-14 5-5 9-12 7-11h2v-2l11-9 14-14 6-4 4-6 10-11 1-5h-13l2-2 25-10 26-9 21-7 21-6 22-6z" fill="#047C82"/>
<path transform="translate(893,595)" d="m0 0 4 3v8h3l1 6h-1v9l3 6 1 9 4 1 2 4v3h2l5 13 3 10 5 2 2 1 3-4 4-24 2 2 1 36v55l-1 9-2 39-2 3-5 1v-2h-2l-4-6-6-5-9-12-4-8-2-8-1-2-1 30h-1v-141l-9 7-9 9-11 9-7 7-1 3-1 42-2 4h-2l-5-11-2-10v-5h-3v-2h-3v-9l-6 1v3l-10 4-4 2-19 19h-2v2l-4 3h-2v2l-7 4-4 1 2-5 7-8 8-8 8-7 5-5 6-4 1-3 3-1 2-7 4-5h3l1-4 3-1v-2h2l-1-3 5-8 5-5 4-6 1-7-2-9h-12l-4 2-3-1 13-6 24-10 14-7z" fill="#058789"/>
<path transform="translate(585,879)" d="m0 0h8l9 4 21 12 17 10 28 16 23 13 9 6 2 3v71l-5 5-11 1h-16l-6-2-3-4-1-3v-46l-1-3-27-16-12-7v9l-1-4-10-1-14-4-5-2-5-5-3-8-2 2v-40l3-6z" fill="#24C0B1"/>
<path transform="translate(978,639)" d="m0 0 4 5 1 5 2 1-1 2 2 1 2 8 3 8 7 6 2 1v3h6l3-1 3 2h1l5-2 9-1v-1h21l7 2 4 1 2-2h6v3h6l-1-3 5-1 5-4 5 1 2 1v7l-8 22-11 25-8 15-4 5-1-4h-3l-12 6-4 1-2 4-5 1-16-1-6-2-14-1-5-3-4-5-4-15-4-7-1-7v-51z" fill="#057C82"/>
<path transform="translate(977,715)" d="m0 0h1l2 9 4 8 3 12 5 6 3 1 14 1 9 2 16 1 7-6 6-2 10-5v2l2 1-3 7-9 14-9 12-12 14-4 4-1 13h-1l-1 22-1 61-4 11-4 3v-2h-2l-5-5-10 1-1-4 1-3-3-4-1-7h-4v-2l-4-2-1 1-1 4-1 131h-1z" fill="#06616C"/>
<path transform="translate(675,393)" d="m0 0 4 2v2l-8 7-11 8-11 9-13 9-3 1v2l-6 3-10 10h-2v2l-5 4-26 26-7 8-11 14-8 11-6 10-9 14-6 12-3 9-5 13-4 12-1 6 6-2 5-6 2 1-13 18-8 12-3 5h-2l-2-3v-33l2-18 7-20 5-15 10-19 9-17 8-13 5-10-12 7h-2v2l-5 2v2l-6 4h-3l3 1h3v-2l4-1v-2l6-4 3-3h2l-1 7-9 13-7 11-4 7-1-4 4-11 1-6-8-1 2-6 7-15 2-5h2l2 5 9-6 10-9 24-18 15-10 14-8 17-9 16-7 12-4h8v-2z" fill="#047C82"/>
<path transform="translate(453,1129)" d="m0 0h15l7 2 8 9 10 13 11 13 13 17 2 7v5l-5 1-5-1-4 2h-10l-2-1-3 7-5-4-4-5-4-2 1 76-2 7-2 1h-24l-5-2-2-3-1-8v-82l1-48 3-3z" fill="#06626C"/>
<path transform="translate(821,809)" d="m0 0h1l2 11 2 16 2 11 1-5 2 2 4 8 2 6-4 1 2 6 5 6 3 1-1-8 5 4 1 2 2-9 3 1v-7l2-2 3 9v154l-5 3h-29l-3-4-1-12v-46z" fill="#064957"/>
<path transform="translate(910,1129)" d="m0 0h61l16 2 13 5 10 7 8 9 6 13 2 8v7l-4-1-3 5-9 2h-3l-3 5h-2l1 3-1 1-9 1-4 2-4-2 4-9v-10l-4-7-5-4-4-1-35-1-1 23-4 3-16 1h-3v2l-5 2v-2h-2l-2-2-3-1v81h-1v-138l2-3z" fill="#06626D"/>
<path transform="translate(639,1129)" d="m0 0h71l9 1 2 9v15l-1 7-5 3-73 1v22l53 1v5l-3 5-5 1h-5l-8-3v-2l-8-1h-5v-2l-4 1-3 2h-9l-1 2h-5l-2-4-9-1v2h-2v2h-4l-2-3-7-2v-2l-4 2h-3v7h-1v-63l3-4z" fill="#06626D"/>
<path transform="translate(753,1129)" d="m0 0h19l5 2 9 10 12 17 12 16 4-2 9-11 14-20 8-10 6-2h25l11 1-2 5-12 16-11 14-10 12-8 10-9 12-2 3-1-5h2l-2-4 1-1-9 1-3 3-1 3h-5v-6l-10 2v4l-3 1h-7l-1-3h-4l-1 2-3-1-6-9-8-10-12-16-11-13-10-14-2-3v-3z" fill="#06626D"/>
<path transform="translate(1106,1129)" d="m0 0h23l6 2 4 6 14 35 12 28 1 4-3 2-1 5-10 5-13-5-3-4h-2l-1 2h-2l-11-27h-3l-12 28-2 3-5 2-4-1-4 2h-13l-3 4-4 1-2-5-2-4 19-42 13-31 4-7z" fill="#074B59"/>
<path transform="translate(670,707)" d="m0 0 4 2-2 4v6l2 3-1 7-16 32-8 14-5 7-3 6-5 8-5 6-2-1-5 3-5 7-4 8 2 2-1 1 2 1v2l-4 1-1 3h-7l-16-15-12-13-3-4 2-4 8-13 10-13 3-4h2l1-3 3-1 1-2h2l1-3 5-5 6-5 3-3 1-3 11-8 5-4h3l1-3 5-3 9-4 11-8z" fill="#063D4E"/>
<path transform="translate(936,735)" d="m0 0h1v88l-1 36-1 47-3 3-6-2-5-2-4-5-7-13-3-2-3-12-3-22-2-5-1 162h-1v-234l1-32 3 4 3 10 7 12 8 9 5 4 1 4h7l1-2 2-42z" fill="#06626D"/>
<path transform="translate(685,936)" d="m0 0h10l6 5 1 2v71l-5 5-11 1h-16l-6-2-3-4-1-3v-46l-1-3-13-8-1-4 5-2 10-6 10-2 6-2 9 1z" fill="#06888A"/>
<path transform="translate(876,603)" d="m0 0h7l5 8 2 6 1 10 5 5-17 17-11 9-7 7-1 3-1 42-2 4h-2l-5-11-2-10v-5h-3v-2h-3v-9l-6 1v3l-10 4-4 2-19 19h-2v2l-4 3h-2v2l-7 4-4 1 2-5 7-8 8-8 8-7 5-5 6-4 1-3 3-1 2-7 4-5h3l1-4 3-1v-2h2l-1-3 5-8 5-5 4-6 1-7-2-9h-12l-4 2-3-1 13-6 22-9z" fill="#057C82"/>
<path transform="translate(603,645)" d="m0 0 1 4-2 7-9 16-10 17-2 7-3 7-1 5h-2l-2 10-5 16h-2l-2 16-4 16-2 5-4-1-12-20-8-15 1-8 6-12 5-12 10-15 10-13 5-6 8-7 5-5 8-7z" fill="#074A58"/>
<path transform="translate(451,1186)" d="m0 0 12 1 13 3 1 1 1 77-2 7-2 1h-24l-5-2-2-3v-73l1-2h2l3-3z" fill="#063E4E"/>
<path transform="translate(696,810)" d="m0 0h5l-1 10 6 1v2l9 2-1 4-10 9-1 4-1 45-5-1-12-5-19-10-24-14v-3l6-3 6-11 7-7 14-11 11-8 7-3z" fill="#063E4F"/>
<path transform="translate(779,889)" d="m0 0 2 2v125l-5 3-26 1-7-2-2-4v-30l1-77 2-6h2l2 12 1 3 2-1 1 6-1 1 2 14 6 9-4 10-1 11 10 3 4 1 2 3 2 6 4-7 2-13-1-11v-14l1-16-1-3v-11l1-3z" fill="#063D4E"/>
<path transform="translate(610,1188)" d="m0 0h3v2l8 1 1 4h4v-2h2v-2l9 1 2 3 5 1 1-3h9l5-3 2 1v2l8-1 5 2v2l7 1 3 1h8l1-5h2l-1-4 4 1 3 5v19l-5 6h-55v7l-1 2-9 1-5 2-8-1-2-7-4-2-4-5-3-9v-11l1-7z" fill="#074A58"/>
<path transform="translate(821,892)" d="m0 0h1l1 8 2 2 1 17 2 12 4 8 5 1 3 6 2 2-4 1v3l3 5-5-1 3 6 3 5 3 2 2-5 4 5 2-4h2l1-3 2 4v50l-5 3h-29l-3-4-1-12v-46z" fill="#063F4F"/>
<path transform="translate(838,531)" d="m0 0h3l1 5-5 5-9 6-10 6-15 8-11 8-11 7-14 10-6 3-4 4h-2v2h-2v2l-26 18-7 5h-2v2l-13 10-11 12-9 5-7 6h-2l-2 4-7 6-5 7h-2l-2 4-5 5-3 1-2 4-8 11-9 11-5 9-3 7 1 5v3l-6 1-1-5 6-15 7-10 4-8 8-11 5-5 8-11 8-10 9-11 11-9 8-6 7-6 13-12 9-8 14-10 3-1 1-3 11-7 10-8 7-4 11-6 11-8h2l2-4 15-9 5-2-2-3-5-1 4-2 19-5z" fill="#028F94"/>
<path transform="translate(1106,1129)" d="m0 0h23l6 2 4 6 14 35 2 7-5 2-4-4-9 1-5-2-5-1-9 1h-12l-4-1v2h-2l-2 6h-6l-5 1v-2l-4 1-2-1v4l-3-1 14-31 7-18 5-6z" fill="#06626C"/>
<path transform="translate(700,385)" d="m0 0h10l3 1-1 5-10 8-13 10-20 11-19 12-12 7-13 13-5 4h-2l-2 4-10 10-8 7-5 6-11 9-4 2-2 4-2 3h-2l-2 5-8 10-7 12-8 11-9 17-5 14-3 9 4-1 3-1v2l-5 4-3 4h-5l1-10 7-19 3-10 6-10 4-8 14-22 12-16 6-7 7-8 23-23h2l2-4 4-2v-2l8-7 6-5 4-1v-2l17-12 11-9 10-7 3-3h2l1-3h2l-3-3-13 1v2h-5l1-2 9-3 9-2 12-3z" fill="#028E93"/>
<path transform="translate(978,639)" d="m0 0 4 5 1 5 2 1-1 2 2 1 2 8 3 8 7 6 2 1v3h6l3-1 3 2h1l5-2 9-1v-1h21l7 2 4 1 2-2h6v3h6l-1-3 5-1 5-4 5 1 2 1v7l-4 11-4 1-5-1-7 4-8 6-8 1h-17l2-1v-2l-7 1h-20l-12-1-6-5-7-10-3-8-1-7-2-7-2-1z" fill="#028F94"/>
<path transform="translate(568,1129)" d="m0 0 11 1 3 4v137h-1l-1-81-2 1-2 5-9 2-5-1-1-4h-9v4h-2l-2 10-1 11-2-1 2-86 1-1z" fill="#06626C"/>
<path transform="translate(761,468)" d="m0 0h12l2 3-9 6-7 6-18 12-11 7-17 9-10 6-10 7-15 9-10 8-5 5h-2v2l-8 7-10 9-6 4h-2l-3 9-6 7-4 1-3 4h-2l-2 4-5 5-7 10-9 12-1 2h-2l-2 6-6 8-5 13 1 4 4-2-7 7h-3l-1-4 6-16 6-11 9-14 6-9 8-15h2l2-4 8-11 14-14 4-5 8-7 15-13 11-8 12-9 9-7 9-5 9-7 4-1 16-8 9-6 10-7 2-1-2-3h-10v-1z" fill="#028E93"/>
<path transform="translate(936,914)" d="m0 0h1l1 28v70l-3 5-4 2h-30l-3-4v-100l3 3 2 10 2 6 2 9 2 5 2 1 4 14 5 8 2 3-5 1 1 4h-2v3l3 2 2 1h3l4 7 4 2 2-8 1-13z" fill="#064050"/>
<path transform="translate(898,674)" d="m0 0 3 4 2 17 6 18 6 8 4 5 4 4 6 1 3-12 2-14 2-1 1 8v23l-1 9-2 39-2 3-5 1v-2h-2l-4-6-6-5-9-12-4-8-2-8-2-4z" fill="#057C82"/>
<path transform="translate(580,1225)" d="m0 0h1v48l-4 3h-25l-5-3-9-9-11-14-13-16-1-3 5 2 3 3 9 1v-4l5-1 1 7 3 1 16-9 12 1 9-4z" fill="#063E4F"/>
<path transform="translate(841,1213)" d="m0 0 4 2 7 9 12 15 20 26 3 6-1 4-4 1h-33l-7-7-13-18-10-13-6-8 1-3 7 2 4 4h3l5 1h10l-6-4 1-3 4 2-2-5v-3h2z" fill="#063F50"/>
<path transform="translate(467,980)" d="m0 0 2 1v1h19l29 2 18 4 4 2-1 4-4 2v2l10-1-2 2-3 1 3 2-5 1 4 2-9 2-35 3h-10l-18 2-5-1-2-1v-2h-6l-1-3v-11l4-8 6-5z" fill="#058789"/>
<path transform="translate(965,1223)" d="m0 0 8 1h4l7 1 4 2 8-1 1-2 4 2 7 11 16 21 7 11 1 5-6 2h-29l-5-5-11-15-16-24-6-2 2-4 4-1z" fill="#063F50"/>
<path transform="translate(675,393)" d="m0 0 4 2v2l-8 7-11 8-11 9-13 9-3 1v2l-6 3-10 10h-2v2l-5 4-26 26-7 8-11 14-8 11-6 10-9 14-6 12-3 9-5 13-4 12-1 6 6-2 5-6 2 1-9 12-6 5-5-1v-15-3l4-16 1-2h2l1-7 7-16 7-11 13-22 2-5 4-4 2-1 2-4 3-4 5-5 5-4-2 4-3 5-4 4 1 1 7-8h2l1-2 2-3 8-10 2-1 1-2 5-3 3-5h2l10-10h2l2-4 28-28 3-6 2-3-8 1-9 1 2-2 11-5 12-4h8v-2z" fill="#048688"/>
<path transform="translate(833,1191)" d="m0 0 1 4v2h-2l1 5h2l7 10v9h-2l2 5v3l-4-1v2l5 2v2l-3 1h-7l-7-2h-3l-2-3-7-2-4 1-3-2-9 3-11-1v-3l-7 2-2 2-1-4v-3l4-1 1-5h2l1-4-6 4 2-4 7-10 1-6 2-1 3 1 1 2h6l3-1 1-4 10-1v6l5-1 1-4 5-2z" fill="#074A58"/>
<path transform="translate(905,1210)" d="m0 0 1 2 4 2 1 4 6 4v6l5 2h8l5-1 7 1-1 2-1 41-4 3h-28l-3-3z" fill="#063E4E"/>
<path transform="translate(746,472)" d="m0 0 4 1v2l2 1-12 8-8 6-17 8-3 2-5 2-8 6-11 7-10 8-15 11-11 9-13 12-21 21-7 10-2 3h-2l-2 6-8 14-7 10-7 11-5 11-5 13v4l7-4 5-6 4-3h2l1-3 4-3 2 1-7 7-8 7-10 10-5 3-4 4-3 1 1-9 7-17 6-12 9-15 1-2h2v-3l2-2 2-1 1-4 3-3v-2l3-3v-2l5-5 4-8 7-9 4-5 5-5 14-15 10-8 12-9 5-5 11-9 13-11 17-12 6-4 4-5 11-6h2v-2l-9 1-3 1h-9l3-2 13-3 11-3z" fill="#048789"/>
<path transform="translate(451,1186)" d="m0 0 12 1 13 3 1 1v50l-4-2-3 2v-4l-1-3 1-2-3-3-6 2-7-3-6 4-2-6h-2l-1-2v-26l1-2h2l3-3z" fill="#064A58"/>
<path transform="translate(893,595)" d="m0 0 4 3v8h3l1 6h-1v9l3 6 1 9 4 1 2 4v3h2l5 13 3 10 5 2 2 1 3-4 4-24 2 2v20l-1 2-2 11-4 10-3 2h-5-2l-4-2-3-8v-3l-2-1-4-20-2-2-1-8h-2v-2h-2l-1 131h-1v-141l-2-1-5-5-2-13-5-10h-7l-7 2 1-2 13-6z" fill="#059497"/>
<path transform="translate(978,662)" d="m0 0 3 1 3 11 1 6 4 8 5 7 5 4 19 1h20v2h20l6-3 9-7h3l1-2v3h2l1-2 4 2-3 10-5 12-5 1-3 1-2-2-6 1 3-6 1-3-3 1v-2l-11 2h-30l-3 2h-3l-14 1-10-5 3 5-1 5-3-4-4-8v-3l-3-1-1-4-2-1-2-16v-15z" fill="#058789"/>
<path transform="translate(581,922)" d="m0 0 2 2 4 9 6 5 6 1 14 4 6 1v18l-2 9-3 3-8 1-6 1v-2h-7l-3-2v-2h-2l1-5-7-2-1-1-1-22v-14z" fill="#048689"/>
<path transform="translate(701,950)" d="m0 0h1v64l-5 5-11 1h-16l-6-2-3-4-1-3 1-21 10-4 18 2 2 4-2 6 9-1v-2h2l-1-7h2z" fill="#06626D"/>
<path transform="translate(978,979)" d="m0 0 3 1 2 9 3 7 3 10 2 1-4 1-1 1h7v2h18l13 1 36 1 10 1h32l16-1 10-1 15 1 2 1v2l-8 3h-156l-3-3z" fill="#063F50"/>
<path transform="translate(699,952)" d="m0 0h2v36h-2l1 9-9 2-4-1h2l1-6-2-2 1-1-18-2-10 3v12h-1v-31l2-6h2v-2l9-2 7 1v2h16l2-1z" fill="#057D83"/>
<path transform="translate(802,540)" d="m0 0h8l2 4-17 10-9 8-17 11-7 3-22 16h-2l-1 4-8 4-17 14-9 9-8 7-12 9-13 11-7 9-12 15-6 9-4 2 2-5 5-5 1-3 2-2 2-4h2l2-4 6-8 4-4 3-5 3-1v-2h3v-2l5-3h2l2-4 9-10 5-5 4-1 9-8h2v-2l10-10 4-1 3-3 4-3 7-4 10-9 20-13 4-2 1-2h2v-2h2v-4h2v-2h-2v-2l-8-1 4-2 21-6z" fill="#048789"/>
<path transform="translate(523,611)" d="m0 0 2 2 1 6v12l-5 24-1 9h2v12l-2 6-7 1-4-16-3-15v-10l4-12 8-15h2v-2h3z" fill="#074B58"/>
<path transform="translate(619,948)" d="m0 0h1v66l-5 5h-146l1-3h16l48-1h38l4 1v-2l11-3 21-2h3v3l-9 2 1 1h9l1 1 2-3h2l1-8z" fill="#06626D"/>
<path transform="translate(709,674)" d="m0 0 2 1-23 13-16 10-16 11-14 10-13 11-11 9-10 5-2-4 5-16 7-13 4-5h2l2-4h2l3-6h2l-2 7-8 12-5 13v5l6-2 5-5 21-16 24-16 16-10z" fill="#058688"/>
<path transform="translate(685,936)" d="m0 0h8l-1 4-5 5-4 3-12 1-11 3-5 2-6 2-4-4 1-3 6-2 8-5 10-2 6-2 9 1z" fill="#028F94"/>
<path transform="translate(876,603)" d="m0 0h7l5 8 2 6 1 10 5 5-3 4-9 2-5-1 3-14v-9l-4-8h-7l3-2z" fill="#058789"/>
<path transform="translate(582,924)" d="m0 0 2 3 3 6 6 5 6 1 14 4 6 1-2 4-11 2-10-1-5-4-4-2-4-10z" fill="#028F94"/>
<path transform="translate(546,473)" d="m0 0h2l-1 7-9 13-7 11-4 7-1-4 4-11 1-6-8-1 2-6 2 1 3 1h3v-2l4-1v-2l6-4z" fill="#057B81"/>
<path transform="translate(636,506)" d="m0 0 2 1-3 3-19 9-11 6-22 14-16 13-8 7h-2v2l-8 7-5 5h-2l-2 4-3 2 1-4 13-13h2l1-3 7-6h2l1-3 19-14 16-10 9-6 12-6z" fill="#048186"/>
<path transform="translate(694,578)" d="m0 0 3 1-36 19-18 10-20 13-17 13-6 5h-2l1-3 12-9 3-1v-2l24-16 21-12 25-13z" fill="#048187"/>
<path transform="translate(709,674)" d="m0 0 2 1-23 13-16 10-16 11-14 10-13 11-6 5-2-1 4-5 20-15 18-13 17-11 21-12z" fill="#048186"/>
<path transform="translate(542,725)" d="m0 0 3 4v3l2-1-1 6-1 2v12h2v5l-4-4-7-13v-5l4-7h2z" fill="#063F50"/>
<path transform="translate(1019,980)" d="m0 0h43v1l-16 1-16 3-9-3z" fill="#063D4E"/>
<path transform="translate(598,763)" d="m0 0 2 1-10 13-7 14-2 5-3 1-1 2-2-4 7-10 7-11z" fill="#064A58"/>
<path transform="translate(769,950)" d="m0 0 4 5 2 6-2 4-1 4h-3l-1-5-2-2 2-11z" fill="#063D4E"/>
<path transform="translate(727,811)" d="m0 0h4l-1 4-14 13h-1v-8l6-3 5-5z" fill="#074655"/>
<path transform="translate(636,544)" d="m0 0 2 2-12 14-7 8-1-3 10-13z" fill="#058789"/>
<path transform="translate(993,714)" d="m0 0h2v2l11 1 5-2 6 3v1l-19 3-2-2 1-1-4-3z" fill="#058789"/>
<path transform="translate(550,459)" d="m0 0 2 1-3 4h-2v2l-7 4-3 2-5-1-1 3-1-2 4-9h2l2 5 9-6z" fill="#079597"/>
<path transform="translate(574,477)" d="m0 0v3l-4 6-4 4-1 5-3 1-1-6 2-1 4-6z" fill="#058487"/>
<path transform="translate(550,512)" d="m0 0 2 2-2 2-4 8h-2v3h-2l-1-4 6-9z" fill="#058286"/>
<path transform="translate(466,987)" d="m0 0h5l-1 5-7 3-2-4v-2z" fill="#028F94"/>
<path transform="translate(596,639)" d="m0 0 2 1-7 7-8 7-7 6 1-4 5-4 5-5 4-2 1-3z" fill="#048085"/>
<path transform="translate(1047,752)" d="m0 0 1 2-2 3h-2v2h-2l-1 3-7 4-3-1 1-2 5-2 5-5z" fill="#057C82"/>
<path transform="translate(673,614)" d="m0 0h2l-2 4-5 5-8 10-1-2 8-11z" fill="#057C82"/>
<path transform="translate(686,624)" d="m0 0 2 1v3l-7 4-4 4v-3l5-5z" fill="#058789"/>
<path transform="translate(1e3 764)" d="m0 0 5 1v3h-7l-7-2v-1z" fill="#057C82"/>
<path transform="translate(589,532)" d="m0 0 3 1-14 10-3 1 1-3z" fill="#047F84"/>
<path transform="translate(650,710)" d="m0 0 2 1-13 11-5 1 4-4z" fill="#048287"/>
<path transform="translate(624,410)" d="m0 0h2v2l-8 2v2l-7 3-3-1z" fill="#038C90"/>
<path transform="translate(604,523)" d="m0 0 3 1-13 8-3-1z" fill="#048086"/>
<path transform="translate(643,401)" d="m0 0 3 1-6 3-1 2-9 1 2-2z" fill="#038C8F"/>
<path transform="translate(944,1201)" d="m0 0h13l-3 1v2h-7z" fill="#063D4E"/>
</svg>
