<?xml version="1.0" encoding="UTF-8"?>
<svg version="1.1" viewBox="0 0 1600 767" width="1280" height="1280" xmlns="http://www.w3.org/2000/svg">
<path transform="translate(724,96)" d="m0 0h47l2 1 12 1 9 2 1 1 11 2 17 6 12 5 24 13 6 4 4 5-1 2 4 2v24l-5 5-10 6h-12l-9-4-8-6-1-3-8-5-17-8-19-6-8-2-19-1h-17l-14 1-2 1-10 1-15 5-13 4-17 8-10 7-9 6-10 9-8 7-7 9h-2l-1 6h48l8 1 32 1 9 3 8 3 11 7 6 5 10 10v2l4 2v2l4 2 6 6v2l4 2 6 5 7 8 7 6 3 4v2l4 2 6 5 3 3v3l4 2 7 6v2l4 2 3 3v2l4 2 6 6v2l4 2 2 4 4 2 7 6v2l3 1v3l3 1v4l3 1 1 8v16l-2 3h-2l-1 4-4 4-9 5-8 2-6-1-9-3-7-4-5-5-6-7-3-3-6-7-17-17v-2l-4-2-7-6-7-8-2-4h-2l-7-8-2-1v-2l-4-2-10-10-2-4-3-1-5-5-5-4-9-5-7-2h-107l-2 1 1 12-2 11 4 1 77 1 15 2 16 5 18 10 9 8v2l4 2v2l4 2 2 4 3 1 3 3v3l4 2 16 16 8 7 7 8 6 6v2l5 2 5 5v3l3 1 3 7 1 1v21l-2 1-3 5-1 2 10-2 12-6 22-13 10-9 9-7 2-3h2l2-4 3-3h2l1-4 5-5v-3l3-2 1-5 2-1 2-4 2-1 1-5 2-2 1-5 4-1-1-4 3-3 1-8 3-1v-8l3-7 1-17 2-6 1-17 2-4 1-9 8-8 7-4h13l8 5 5 5 2 6 2 3v24l-3 7-1 18-3 6-1 9-2 2-1 8-3 3-1 6-2 2-2 7h-2v5l-2 2-2 5-3 7-2 1-2 5h-2l-2 6h-2l-1 5h-2v3l-5 5-8 10-12 13-8 8-9 7-7 5h-2v2l-28 16-13 5-12 5-15 4-18 3-26 2h-13l-24-2-3-1h-7l-17-5-21-8-8-4-8-3-16-10-10-7-11-9-14-13-4-5-9-9-1-4-5-5-2-4-3-3-3-4v-4l-3-1-1-4-3-2v-4l-3-2v-5l-3-2-2-9-2-2v-6l-3-3-1-9-2-2-2-13-2-5v-51l3-8v-8l3-7 1-8 3-4 1-6 2-2 1-7 3-4 1-4 2-2 2-5 3-7h2l1-5h2l1-5 2-1 3-5 2-4h3l1-4h2l1-4 3-4h2l2-4h2l1-3 4-4h2l1-3h2l1-3 9-7 12-9 27-15 6-2 13-5 13-4 17-4 12-1zm-107 268-2 1v6l4 4h2l1 4 2 1 1 3 2 1 1 3h3l1 4 8 7 3 3h2l2 4 9 7 20 12 12 6 9 3 14 4 9 1 2 1 11 1 3 1h24l2-3-3-3h-2l-2-4-11-11-8-10h-2l-2-4-7-8h-2l-2-4-7-8-13-13-14-7-14-1h-47z" fill="#088696"/>
<path transform="translate(927,250)" d="m0 0h13l8 5 5 5 2 6 2 3v24l-3 7-1 18-3 6-1 9-2 2-1 8-3 3-1 6-2 2-2 7h-2v5l-2 2-2 5-3 7-2 1-2 5h-2l-2 6h-2l-1 5h-2v3l-5 5-8 10-12 13-8 8-9 7-7 5h-2v2l-28 16-13 5-12 5-15 4-18 3-26 2h-13l-24-2-3-1h-7l-17-5-21-8-8-4-8-3-16-10-10-7-11-9-14-13-4-5-9-9-1-4-5-5-2-4-3-3-3-4v-4l-3-1-1-4-3-2v-4l-3-2v-5l-3-2v-5l1 2 12 4 6 1 14-3h17l5 7 3 2v2h2l1 4 3 1v3l3 1v3h3l1 3 8 7 5 4 5 5 6 5 20 12 12 6 9 3 14 4 9 1 2 1 11 1 3 1h24v-3l-17-17-7-9-5-5-5-7 8-4 1-1h7l5 1 4-4 21-5h12v-2h2l1-2 7 5 3 3v3l3 1 3 7 1 1v21l-2 1-3 5-1 2 10-2 12-6 22-13 10-9 9-7 2-3h2l2-4 3-3h2l1-4 5-5v-3l3-2 1-5 2-1 2-4 2-1 1-5 2-2 1-5 4-1-1-4 3-3 1-8 3-1v-8l3-7 1-17 2-6 1-17 2-4 1-9 8-8z" fill="#173851"/>
<path transform="translate(724,96)" d="m0 0h47l2 1 12 1 9 2 1 1 11 2 17 6 12 5 24 13 6 4 4 5-1 2 4 2v24l-5 5-10 6h-12l-9-4-8-6-1-3-8-5-17-8-19-6-8-2-19-1h-17l-14 1-2 1-10 1-15 5-13 4-17 8-10 7-9 6-10 9-8 7-7 9h-2l-1 6h48l8 1 32 1 9 3 8 3 11 7 6 5 10 10v2l4 2v2l4 2 6 6v2l4 2 6 5 5 6 1 4 4 5-6-1-5 1-3-2h-21l-7-1h-20l-9-5-8-5-6-5-10-3-13-2-13-1-29-6-7-1-27-2-16-2-5 3-12 1-3 3h3l-1 5-4 2 1-4-6-2-1-3v-9l-2-1v-6l3-4 1-7 3-4 1-4 2-2 2-5 3-7h2l1-5h2l1-5 2-1 3-5 2-4h3l1-4h2l1-4 3-4h2l2-4h2l1-3 4-4h2l1-3h2l1-3 9-7 12-9 27-15 6-2 13-5 13-4 17-4 12-1z" fill="#05C9B4"/>
<path transform="translate(927,68)" d="m0 0h62l12 1 9 4 7 7 1 4h2l2 8 2 2v82l-3 5-1 5-2 1-1 3-10 6h-18l-9-5v-3l-4-2-1-4-2-1-1-16h-6l-1 4h-2v4l-5 4h-2l-2 4-11 11-1 2h-2l-2 4-14 15-3 3h-2l-2 4-11 5h-12l-12-6-1-3-3-2v-2l-3-1-1-5-2-3v-11l2-2 2-7 3-5 5-5 5-6 8-7 5-4 7-8 6-5 2-3h2v-2l6-5 7-8 3-1v-2l-14-1-2-1-9-1-11-7-2-4-2-1-1-6-2-4v-8l4-10 2-1 1-3 12-6z" fill="#06C9B5"/>
<path transform="translate(404,510)" d="m0 0h21l9 4 2 3v3l3 1 1 4 6 6 1 3 2 1v4l3 1 7 9 1 3 6 6v2l4 2 2 4 4 5 1 3 3 2v3l3 1 1 3 2 1 1 3 3 3 4 6h5v-25l-2-16-1-20v-22l6-3h27l3 3-1 66v20l1 5-1 52v6l-1 1h-25l-5-4v-4l-3-1-1-4-3-1v-3l-3-1v-3l-4-2-9-12-4-4-1-3-6-6-1-3-6-6-4-7-3-5-3-3v-2l-3-1-1-3-6-6-1-4-5-1-1 89h-33l-1-2v-13l1-2-1-2v-130z" fill="#153851"/>
<path transform="translate(782,160)" d="m0 0 11 1 14 9 4 4 1 3 3 3v2l3 1v2l3 1v2l3 1 3 3 1 3 7 6 7 8 6 6v2l4 2 13 13v2l4 2v2l3 1 5 5 2 4 3 1 3 4v2l4 2 3 3v4l3 1 2 7v10l-1 10-4 2-1 4-3 1v2l-4 3h-6v2h-17l-9-4-5-5-7-8-7-6-7-8-5-4-14-16-6-5-1-3-9-7-7-8-8-8-8-7-5-6-3-2v-4l-3-2-2-6-2-4v-8l3-5 2-6 3-5h2l2-4 9-4z" fill="#06C9B4"/>
<path transform="translate(596,550)" d="m0 0h11l10 1 13 7 9 6 6 7 1 3 3 2 2 5 1 5 3 5v27l-9 1h-63l-4 2-1 2 3 1 1 3 7 6 3 2 7 2h10l10-5h8l8 5v2l5 2 6 4-2 4-7 5h-2l-1 3-7 4-10 3-2 1h-24l-9-3-14-7-5-5-6-7v-3l-3-1-3-5-2-7-2-2v-36l3-4 1-5 2-1 2-5 2-2 4-5 2-1 1-3 11-8 11-4zm-2 28v2l-5 1-8 6-4 6 1 4 2 2 25-1 20-1-1-5h-2l-1-4-2-1-1-3-11-6z" fill="#163952"/>
<path transform="translate(819,550)" d="m0 0h13l9 1 8 3 9 6 4 3v3l3 1 3 5 1 3 1 6 2 3 1 73 1 5-1 1h-28l-6-3-12 5h-21l-10-4-9-6-1-3-2-1-3-5-1-5-3-7v-10l2-1 2-6 2-1 2-5 10-8 13-4 11-1 2-1 16-1 4-2v-6l-3-1-1-4-8-4h-15l-7 3-8 1-2-1v-2h-2l-4-6-7-6v-5l6-5 16-7zm11 67-15 3-4 3-1 8 2 5 7 3 15-1 4-3v-3l3-1 1-6 1-7-1-1z" fill="#173953"/>
<path transform="translate(1012,549)" d="m0 0h16l10 3 12 7 8 8 1 3 2 1 1 8 3 4v79l-1 1h-24l-4-3h-5l-5 3-6 2h-20l-16-8-4-3v-3l-4-2-2-4-3-8-1-3v-9h2l1-8 3-1 2-5h2v-2l5-4 9-4 6-2 11-1 2-1 17-1 4-1-2-7-2-5-7-4h-16l-10 4-6-1-4-6v-2l-3-1v-2l-4-1v-4h-2v-3h2l1-4 8-4 10-4zm12 68-15 3-6 3v12l5 3h16l6-3 4-5 1-8 1-3-1-2z" fill="#183A53"/>
<path transform="translate(659,549)" d="m0 0h29l8 5 1 3 2 1v4l4 2v2l3 1 1 3 2 1 3 5 2 3h4l2-4 2-1 1-4 6-6 1-3 2-1 3-6 2-3 6-1h22l5-1 3 1v4l-2 1-2 5h-2v4l-3 2-5 8h-2l-1 4-5 5-3 5-4 5-1 4-4 4h-2v10l5 5 1 4h3l2 5 2 1v4l4 1v2l3 2v3l3 1 1 4 3 2v3l3 2 1 4 2 1v4l3 1v3h-34l-6-5-1-4-2-1-1-3-5-5-3-5-2-2v-3h-6l-3 1-1 5-3 1 1 4-3 2-1 3-5 5h-2l-1 5-3 2h-33v-3l3-1v-5l3-3 6-8 1-3 3-2 2-4h2l1-4 4-6h2l1-4 3-5 5-4 1-7-4-2v-2l-3-2-3-5v-3l-4-2v-3l-3-1v-4l-3-1-1-3-5-5-1-4-4-2 1-2-4-2v-3l-3-1-3-4v-2z" fill="#1C3D56"/>
<path transform="translate(927,250)" d="m0 0h13l8 5 5 5 2 6 2 3v24l-3 7-1 18-3 6-1 9-2 2-1 8-3 3-1 6-2 2-2 7h-2v5l-3 2-1-2-5 8-8 3h-11l-4-1-6 2h-6l-10-9v-4l2-1 2-4 2-1 1-5 2-2 1-5 4-1-1-4 3-3 1-8 3-1v-8l3-7 1-17 2-6 1-17 2-4 1-9 8-8z" fill="#0A8797"/>
<path transform="translate(911,549)" d="m0 0 5 1 6 4 5-1 3-2h6v-2h20l9 4 3 2-2 6-4 5-5 5-3 2-1 6-5 3h-7l-5-1-10 3v3l-4 1v6l-2 4v55l2 5-1 4-1 1h-28l-3-2v-46l-1-59 3-3 3-2 13-1z" fill="#183952"/>
<path transform="translate(857,246)" d="m0 0 3 2 4 2 5-2 5 1 3 2 4-1 4 3v2l4 2 3 3v4l3 1 2 7v10l-1 10-4 2-1 4-3 1v2l-4 3h-6v2h-17l-9-4-5-5-7-8-7-6-7-8-5-4-7-8-1-4 4-5h3l1-3 4-2h9l3 1 1-3 11 1-1 2h2l3-3z" fill="#098797"/>
<path transform="translate(561,360)" d="m0 0 1 2 12 4 6 1 14-3h17l5 7 3 2v2h2l1 4 3 1v3l3 1v3h3l1 3 8 7 3 4-3 1 1 7h-2l1 3-1 5 1 4-12 2-5 1h-7l-3-4v-2l-6 2h-5l-5-4-5-3-4-4-1-4-5-5-2-4-3-3-3-4v-4l-3-1-1-4-3-2v-4l-3-2v-5l-3-2z" fill="#144D68"/>
<path transform="translate(932,365)" d="m0 0h1v7l-3 4-1 4-2 1-2 5h-2l-2 6h-2l-1 5h-2v3l-5 5-8 10-12 13-8 8-4 3-2-1 16-15 6-8-4 3-13 2-10 3-7 2h-22l-10-2v-3h2l1-2h3v-4l-2-1 8-6 9-7 9-9h2l2-4 3-3h2l1-4 5-5v-3l5-3 9 8h6l7-2 3 1h12l7-3z" fill="#154D69"/>
<path transform="translate(786,382)" d="m0 0 7 4 4 4v3l3 1 3 7 1 1v21l-2 1-3 5-2 3-3-1-1-3-16 5-13 5-1 2-2-1-6-7-12-12-7-9-5-5-5-7 8-4 1-1h7l5 1 4-4 21-5h12v-2h2z" fill="#114B67"/>
<path transform="translate(878,181)" d="m0 0 3 1-1 8 1 7h2v2l9-1 11-4 13-4 7-1h12l2 5-1 4-8 8-7 8-4 6-11 5h-12l-12-6-1-3-3-2v-2l-3-1-1-5-2-3v-11l2-2 2-7z" fill="#098897"/>
<path transform="translate(927,250)" d="m0 0h13l8 5 5 5 2 6 2 3v24l-3 7h-1v-7l-4-2-3-5v-2l-13 1-9 4-3 2h-6l-1-7h-2l-2 8h-1v-17l2-4 1-9 8-8z" fill="#05C9B4"/>
<path transform="translate(786,382)" d="m0 0 7 4 4 4v3l3 1 1 5-2-2-1 4-14 2-5 2-5 4-13 4-17 2-4 1-4-5-5-5-5-7 8-4 1-1h7l5 1 4-4 21-5h12v-2h2z" fill="#0F5974"/>
<path transform="translate(561,360)" d="m0 0 1 2 12 4 6 1 14-3h17l5 7 3 2v2h2l1 4 3 1-1 2h-2v2h2l1 6-3 1-9-7-3-1h-11l-2 2-2 5-6-1-14-4-1 4v-4l-3-1-1-4-3-2v-4l-3-2v-5l-3-2z" fill="#0C5773"/>
<path transform="translate(932,365)" d="m0 0h1v7l-3 4-1 4-2 1-2 5h-2l-2 6h-2v-3l-1 1-9 1-8 3-13 3-4 2-9-1-3-4-2-7 3-7 5-5v-3l5-3 9 8h6l7-2 3 1h12l7-3z" fill="#0E5975"/>
<path transform="translate(975,169)" d="m0 0 5 2 1 1v5l8-1 4-2 6-1h10l6 1 3 4v9l-1 3-10 6h-18l-9-5v-3l-4-2-1-4-1-1v-10z" fill="#0B8998"/>
<path transform="translate(502,510)" d="m0 0h27l3 3-1 45h-1l-1-35-3 6-7 3-7 1-11-3-1-1v-16l25-1-23-1z" fill="#12506B"/>
<path transform="translate(848,366)" d="m0 0 1 2 7-1 1 5-7 8-6 3-8 2-6-1-9-3-7-4-2-4 5-1 2-3h10l8-2 8 1 2 1z" fill="#105C77"/>
<path transform="translate(404,510)" d="m0 0h21l9 4 2 5-3-2v5l-6 4v2l5 2v4l-19-1-2-2-2-9 2-6 6-4-13-1z" fill="#17526D"/>
<path transform="translate(666,159)" d="m0 0 2 1-10 7-9 6-10 9-8 7-7 9h-2l-1 6h-4l2-4 9-11 12-12 13-10z" fill="#FDFDFD"/>
<path transform="translate(431,569)" d="m0 0 3 3-1 2-1 89-2-1z" fill="#FDFDFD"/>
<path transform="translate(869,581)" d="m0 0 3 3 1 73 1 5-4 1v-75z" fill="#FAFBFB"/>
<path transform="translate(918,600)" d="m0 0h1l1 53 2 5-1 4-1 1h-12v-1h10z" fill="#068595"/>
<path transform="translate(908,406)" d="m0 0v3l-12 14-13 13-4 3-2-1 16-15 10-11z" fill="#FDFDFD"/>
<path transform="translate(501,511)" d="m0 0h24l3 2-26 1-2-2z" fill="#14344E"/>
<path transform="translate(801,400)" d="m0 0 3 2v21l-2 1-3 5-2 3-3-1 5-6 3-7v-14z" fill="#F8FAFA"/>
<path transform="translate(954,266)" d="m0 0 3 3v24l-2 5h-1z" fill="#FDFDFD"/>
<path transform="translate(939,194)" d="m0 0v3l-15 16-3 3-2-1 7-7 7-8z" fill="#F7FAFA"/>
<path transform="translate(592,578)" d="m0 0h2v2l-8 4-5 5-3 2 2-5 7-6z" fill="#FDFDFD"/>
<path transform="translate(932,368)" d="m0 0 1 4-3 4-1 4-2 1-2 5h-2l2-6z" fill="#FDFDFD"/>
<path transform="translate(952,304)" d="m0 0h1v14l-3 6-1-4z" fill="#FDFDFD"/>
<path transform="translate(599,557)" d="m0 0h4l1 4-9 1-2-1v-2z" fill="#124B67"/>
<path transform="translate(919,653)" d="m0 0 2 3 1 5-2 2h-12v-1l10-1z" fill="#FDFDFD"/>
<path transform="translate(705,643)" d="m0 0 2 3-3 2-1 3-5 5-2-1z" fill="#FDFDFD"/>
<path transform="translate(617,372)" d="m0 0 2 1v2h2l1 4 3 1-1 2-4-2-4-5z" fill="#6698A7"/>
<path transform="translate(778,374)" d="m0 0 4 2 5 6-4-1-4-2z" fill="#30748A"/>
</svg>
